<svg width="18" height="18" viewBox="0 0 18 18" fill="none" xmlns="http://www.w3.org/2000/svg">
<path d="M13.5 3.375V0H9.5625C8.63051 0 7.875 0.755508 7.875 1.6875V11.8125C7.875 12.7445 8.63051 13.5 9.5625 13.5H16.3125C17.2445 13.5 18 12.7445 18 11.8125V4.5H14.6566C14.0062 4.5 13.5 3.99375 13.5 3.375ZM14.625 0V3.375H18L14.625 0ZM6.75 12.375V4.5H1.6875C0.755508 4.5 0 5.25551 0 6.1875V16.3125C0 17.2445 0.755508 18 1.6875 18H8.4375C9.36949 18 10.125 17.2445 10.125 16.3125V14.625H9C7.75898 14.625 6.75 13.616 6.75 12.375Z"/>
</svg>
